<svg width="29" height="29" viewBox="0 0 29 29" fill="none" xmlns="http://www.w3.org/2000/svg">
    <path fill-rule="evenodd" clip-rule="evenodd"
        d="M11.009 5.74135C14.4975 2.25288 20.1534 2.25288 23.6418 5.74135C27.1303 9.22981 27.1303 14.8857 23.6418 18.3742C21.3248 20.6913 18.0518 21.4682 15.0959 20.7091C14.921 20.6642 14.7876 20.7168 14.7225 20.7819L10.3914 25.113C9.83253 25.6718 9.04993 25.9464 8.26442 25.8591L5.82774 25.5883C5.37049 25.5375 4.94413 25.3326 4.61881 25.0073L4.37589 24.7644C4.05057 24.4391 3.84566 24.0127 3.79485 23.5554L3.52411 21.1188C3.43683 20.3333 3.71135 19.5507 4.27021 18.9918L8.60098 14.661C8.66633 14.5957 8.71886 14.4618 8.67405 14.2873C7.91498 11.3313 8.69193 8.05843 11.009 5.74135ZM22.4044 6.97878C19.5994 4.17374 15.0515 4.17374 12.2464 6.97878C10.3847 8.84057 9.7575 11.4705 10.3691 13.852C10.5453 14.5383 10.4015 15.3354 9.83842 15.8985L5.50764 20.2292C5.3247 20.4122 5.23483 20.6684 5.26341 20.9255L5.53415 23.3622C5.54107 23.4245 5.569 23.4826 5.61333 23.5269L5.85625 23.7699C5.90057 23.8142 5.95868 23.8421 6.021 23.849L8.45768 24.1198C8.71482 24.1484 8.97101 24.0585 9.15395 23.8755L9.97895 23.0505L8.56394 21.651C8.22036 21.3112 8.21731 20.7572 8.55714 20.4136C8.89696 20.07 9.45097 20.067 9.79456 20.4068L11.2164 21.8131L13.485 19.5444C14.0484 18.9811 14.8452 18.838 15.5312 19.0141C17.9127 19.6257 20.5426 18.9985 22.4044 17.1367C25.2094 14.3317 25.2094 9.78383 22.4044 6.97878ZM14.9479 9.89803C16.2008 8.6451 18.2322 8.6451 19.4852 9.89803C20.7381 11.151 20.7381 13.1824 19.4852 14.4353C18.2322 15.6882 16.2008 15.6882 14.9479 14.4353C13.695 13.1824 13.695 11.151 14.9479 9.89803ZM18.2477 11.1355C17.6782 10.566 16.7548 10.566 16.1853 11.1355C15.6158 11.705 15.6158 12.6284 16.1853 13.1979C16.7548 13.7674 17.6782 13.7674 18.2477 13.1979C18.8172 12.6284 18.8172 11.705 18.2477 11.1355Z"
        fill="#758195" />
</svg>