<svg width="25" height="24" viewBox="0 0 25 24" fill="none" xmlns="http://www.w3.org/2000/svg">
    <path fill-rule="evenodd" clip-rule="evenodd"
        d="M22.395 6.31065C22.7758 6.47382 22.9521 6.91473 22.789 7.29545L22.0996 7.00001C22.789 7.29545 22.789 7.29527 22.789 7.29545L22.7882 7.29713L22.7872 7.29961L22.784 7.30697L22.7733 7.33105C22.7643 7.35118 22.7515 7.3794 22.7349 7.41508C22.7016 7.48643 22.6529 7.58776 22.5885 7.71416C22.4596 7.96681 22.2672 8.32069 22.0081 8.73647C21.5825 9.41951 20.972 10.2777 20.1616 11.1302L21.1299 12.0985C21.4228 12.3914 21.4228 12.8663 21.1299 13.1592C20.837 13.4521 20.3622 13.4521 20.0693 13.1592L19.0687 12.1586C18.409 12.7113 17.6525 13.23 16.7947 13.6562L17.7282 15.091C17.9541 15.4382 17.8558 15.9027 17.5086 16.1286C17.1614 16.3546 16.6969 16.2562 16.471 15.909L15.3818 14.2352C14.6025 14.4897 13.7586 14.6626 12.8496 14.7246V16.5C12.8496 16.9142 12.5138 17.25 12.0996 17.25C11.6854 17.25 11.3496 16.9142 11.3496 16.5V14.7246C10.4686 14.6645 9.64876 14.5002 8.88949 14.2584L7.81542 15.9091C7.58952 16.2563 7.12493 16.3546 6.77774 16.1287C6.43056 15.9028 6.33224 15.4382 6.55814 15.091L7.47056 13.6888C6.60617 13.2667 5.84348 12.7502 5.17809 12.1983L4.21711 13.1592C3.92422 13.4521 3.44935 13.4521 3.15645 13.1592C2.86356 12.8664 2.86356 12.3915 3.15645 12.0986L4.08022 11.1748C3.25566 10.3151 2.63492 9.44656 2.20244 8.75468C1.93951 8.33404 1.74427 7.97566 1.61355 7.7197C1.54815 7.59164 1.49877 7.48895 1.46504 7.41665C1.44817 7.38048 1.4352 7.35189 1.42609 7.33149L1.41529 7.3071L1.41205 7.29966L1.41096 7.29714L1.41056 7.29619C1.41048 7.29602 1.41024 7.29545 2.09959 7.00001L1.41056 7.29619C1.24739 6.91547 1.42343 6.47382 1.80415 6.31065C2.18456 6.14762 2.62506 6.32356 2.78855 6.70363C2.78849 6.7035 2.78861 6.70376 2.78855 6.70363L2.7895 6.70582L2.79558 6.71953C2.80147 6.73273 2.81107 6.75392 2.8244 6.78249C2.85106 6.83965 2.89263 6.92626 2.94943 7.03748C3.06312 7.2601 3.23729 7.58028 3.47439 7.95961C3.95 8.72048 4.67124 9.7071 5.65528 10.6216C6.52118 11.4263 7.58226 12.1676 8.85132 12.6558C9.80581 13.023 10.885 13.25 12.0996 13.25C13.3413 13.25 14.4417 13.0128 15.4121 12.6308C16.6735 12.1343 17.7273 11.3883 18.5863 10.582C19.5559 9.67198 20.2665 8.69517 20.735 7.94321C20.9686 7.56832 21.1402 7.25228 21.2522 7.03268C21.3082 6.92296 21.3491 6.83758 21.3754 6.78125C21.3885 6.7531 21.3979 6.73224 21.4037 6.71925L21.4097 6.70577L21.4102 6.70457C21.4102 6.70467 21.4103 6.70447 21.4102 6.70457M22.395 6.31065C22.0144 6.14753 21.5735 6.32405 21.4102 6.70457L22.395 6.31065ZM2.78855 6.70363C2.78849 6.7035 2.78861 6.70376 2.78855 6.70363V6.70363Z"
        fill="#758195" />
</svg>