<svg width="30" height="30" viewBox="0 0 30 30" fill="none" xmlns="http://www.w3.org/2000/svg">
    <path
        d="M12.1875 15C12.1875 13.4467 13.4467 12.1875 15 12.1875C16.5533 12.1875 17.8125 13.4467 17.8125 15C17.8125 16.5533 16.5533 17.8125 15 17.8125C13.4467 17.8125 12.1875 16.5533 12.1875 15Z"
        fill="#758195" />
    <path fill-rule="evenodd" clip-rule="evenodd"
        d="M2.5 15C2.5 17.0492 3.03121 17.7393 4.09362 19.1196C6.21496 21.8756 9.77264 25 15 25C20.2274 25 23.785 21.8756 25.9064 19.1196C26.9688 17.7393 27.5 17.0492 27.5 15C27.5 12.9508 26.9688 12.2607 25.9064 10.8804C23.785 8.12445 20.2274 5 15 5C9.77264 5 6.21496 8.12445 4.09362 10.8804C3.03121 12.2607 2.5 12.9508 2.5 15ZM15 10.3125C12.4112 10.3125 10.3125 12.4112 10.3125 15C10.3125 17.5888 12.4112 19.6875 15 19.6875C17.5888 19.6875 19.6875 17.5888 19.6875 15C19.6875 12.4112 17.5888 10.3125 15 10.3125Z"
        fill="#758195" />
</svg>