<svg width="18" height="19" viewBox="0 0 18 19" fill="none" xmlns="http://www.w3.org/2000/svg">
    <path
        d="M10.5553 3.41409C11.1142 2.80856 11.3936 2.5058 11.6906 2.32919C12.4071 1.90307 13.2893 1.88982 14.0178 2.29424C14.3197 2.46185 14.6077 2.75609 15.1838 3.34457C15.7598 3.93305 16.0479 4.22729 16.212 4.53569C16.6079 5.27984 16.5949 6.18109 16.1777 6.91303C16.0049 7.21637 15.7085 7.50183 15.1157 8.07276L8.06297 14.8657C6.93966 15.9477 6.378 16.4886 5.67605 16.7628C4.97409 17.037 4.2024 17.0168 2.65902 16.9764L2.44903 16.9709C1.97918 16.9587 1.74425 16.9525 1.60769 16.7975C1.47113 16.6426 1.48977 16.4032 1.52706 15.9246L1.54731 15.6647C1.65226 14.3177 1.70473 13.6441 1.96778 13.0387C2.23083 12.4332 2.68458 11.9416 3.59207 10.9584L10.5553 3.41409Z"
        stroke="#141B34" stroke-width="1.5" stroke-linejoin="round" />
    <path d="M9.75 3.5L15 8.75" stroke="#141B34" stroke-width="1.5" stroke-linejoin="round" />
    <path d="M10.5 17L16.5 17" stroke="#141B34" stroke-width="1.5" stroke-linecap="round"
        stroke-linejoin="round" />
</svg>