<svg width="14" height="15" viewBox="0 0 14 15" fill="none" xmlns="http://www.w3.org/2000/svg">
    <path
        d="M11.8536 7.72364L7.85356 3.72355C7.78364 3.65364 7.69455 3.60603 7.59758 3.58675C7.5006 3.56747 7.40008 3.57737 7.30873 3.6152C7.21738 3.65304 7.1393 3.71711 7.08435 3.79932C7.02941 3.88152 7.00007 3.97818 7.00005 4.07705V5.8496C5.63418 5.976 4.36464 6.60754 3.43986 7.62065C2.51508 8.63376 2.00164 9.9555 2 11.3272V12.0772C2.00008 12.181 2.03246 12.2822 2.09264 12.3668C2.15282 12.4514 2.23783 12.5151 2.33587 12.5492C2.43391 12.5832 2.54012 12.586 2.63977 12.5569C2.73943 12.5279 2.82758 12.4686 2.89201 12.3873C3.38194 11.8048 3.98299 11.3258 4.66008 10.9782C5.33716 10.6306 6.07671 10.4213 6.83555 10.3627C6.86055 10.3597 6.92305 10.3547 7.00005 10.3497V12.0772C7.00007 12.1761 7.02941 12.2728 7.08435 12.355C7.1393 12.4372 7.21738 12.5013 7.30873 12.5391C7.40008 12.5769 7.5006 12.5868 7.59758 12.5675C7.69455 12.5483 7.78364 12.5007 7.85356 12.4308L11.8536 8.43066C11.9473 8.33689 12 8.20973 12 8.07715C12 7.94456 11.9473 7.81741 11.8536 7.72364ZM8.00006 10.8702V9.82719C8.00006 9.69458 7.94739 9.5674 7.85362 9.47363C7.75985 9.37986 7.63267 9.32718 7.50006 9.32718C7.37256 9.32718 6.85205 9.35218 6.71905 9.36968C5.37143 9.49371 4.08866 10.0057 3.02601 10.8437C3.14663 9.74091 3.66979 8.72134 4.4953 7.98023C5.32082 7.23912 6.39069 6.82854 7.50006 6.82712C7.63267 6.82712 7.75985 6.77444 7.85362 6.68067C7.94739 6.5869 8.00006 6.45972 8.00006 6.32711V5.28408L10.7931 8.07715L8.00006 10.8702Z"
        fill="black" />
</svg>